<svg width="15" height="20" viewBox="0 0 15 20" fill="none" xmlns="http://www.w3.org/2000/svg">
<path d="M3.25872 0.125C2.48912 0.125 1.75104 0.430723 1.20685 0.974913C0.662656 1.5191 0.356934 2.25718 0.356934 3.02679V19.0982C0.35689 19.2229 0.391648 19.3451 0.457293 19.4511C0.522939 19.557 0.616866 19.6426 0.7285 19.6981C0.840133 19.7536 0.965041 19.7768 1.08916 19.7652C1.21328 19.7535 1.33168 19.7074 1.43104 19.6321L7.49979 15.0268L13.5685 19.6313C13.6678 19.7065 13.7862 19.7526 13.9102 19.7642C14.0342 19.7759 14.1591 19.7528 14.2707 19.6974C14.3823 19.642 14.4762 19.5566 14.5419 19.4507C14.6076 19.3449 14.6425 19.2228 14.6426 19.0982V3.02679C14.6426 2.64572 14.5676 2.26838 14.4218 1.91632C14.2759 1.56426 14.0622 1.24437 13.7927 0.974913C13.5233 0.705458 13.2034 0.491714 12.8513 0.345885C12.4993 0.200057 12.1219 0.125 11.7409 0.125H3.25872Z" fill="#FAB13E"/>
</svg>
