<svg width="15" height="20" viewBox="0 0 15 20" fill="none" xmlns="http://www.w3.org/2000/svg">
<path d="M1.44788 19.7656C1.3311 19.8494 1.19348 19.8993 1.05016 19.9098C0.90685 19.9204 0.763397 19.8912 0.635585 19.8256C0.507772 19.7599 0.400551 19.6602 0.325718 19.5375C0.250884 19.4149 0.211337 19.2739 0.211426 19.1302V3.51042C0.211426 2.61255 0.568103 1.75145 1.20299 1.11657C1.83788 0.481677 2.69897 0.125 3.59684 0.125H11.4073C12.3051 0.125 13.1662 0.481677 13.8011 1.11657C14.436 1.75145 14.7927 2.61255 14.7927 3.51042V19.1313C14.7927 19.275 14.7531 19.416 14.6781 19.5387C14.6031 19.6614 14.4958 19.7611 14.3678 19.8267C14.2399 19.8923 14.0963 19.9213 13.9529 19.9105C13.8095 19.8997 13.6719 19.8496 13.5552 19.7656L7.50309 15.4104L1.44893 19.7646L1.44788 19.7656ZM13.2312 3.51042C13.2312 3.02695 13.0392 2.56328 12.6973 2.22142C12.3554 1.87956 11.8918 1.6875 11.4083 1.6875H3.59684C3.11338 1.6875 2.64971 1.87956 2.30785 2.22142C1.96598 2.56328 1.77393 3.02695 1.77393 3.51042V17.6062L7.0458 13.8135C7.17872 13.7179 7.33831 13.6665 7.50205 13.6665C7.66579 13.6665 7.82539 13.7179 7.9583 13.8135L13.2302 17.6062V3.51042H13.2312Z" fill="#FAB13E"/>
</svg>
