<svg width="26" height="22" viewBox="0 0 26 22" fill="none" xmlns="http://www.w3.org/2000/svg">
<path d="M23.3125 3.61719H19.3281L18.3789 0.957032C18.3133 0.775004 18.1931 0.617662 18.0348 0.506497C17.8764 0.395332 17.6876 0.335767 17.4941 0.335938H8.50586C8.11035 0.335938 7.75586 0.584961 7.62402 0.957032L6.67188 3.61719H2.6875C1.39258 3.61719 0.34375 4.66602 0.34375 5.96094V19.3203C0.34375 20.6152 1.39258 21.6641 2.6875 21.6641H23.3125C24.6074 21.6641 25.6562 20.6152 25.6562 19.3203V5.96094C25.6562 4.66602 24.6074 3.61719 23.3125 3.61719ZM13 16.9766C10.4102 16.9766 8.3125 14.8789 8.3125 12.2891C8.3125 9.69922 10.4102 7.60156 13 7.60156C15.5898 7.60156 17.6875 9.69922 17.6875 12.2891C17.6875 14.8789 15.5898 16.9766 13 16.9766ZM10.1875 12.2891C10.1875 13.035 10.4838 13.7504 11.0113 14.2778C11.5387 14.8052 12.2541 15.1016 13 15.1016C13.7459 15.1016 14.4613 14.8052 14.9887 14.2778C15.5162 13.7504 15.8125 13.035 15.8125 12.2891C15.8125 11.5431 15.5162 10.8278 14.9887 10.3003C14.4613 9.77288 13.7459 9.47656 13 9.47656C12.2541 9.47656 11.5387 9.77288 11.0113 10.3003C10.4838 10.8278 10.1875 11.5431 10.1875 12.2891Z" fill="#CCCCCC"/>
</svg>
