<svg width="23" height="21" viewBox="0 0 23 21" fill="none" xmlns="http://www.w3.org/2000/svg">
<path d="M0.5625 4.03125C0.5625 2.99525 0.97405 2.00168 1.70661 1.26911C2.43918 0.53655 3.43275 0.125 4.46875 0.125H18.5312C19.5673 0.125 20.5608 0.53655 21.2934 1.26911C22.0259 2.00168 22.4375 2.99525 22.4375 4.03125V11.8438C22.4375 12.3567 22.3365 12.8647 22.1402 13.3386C21.9438 13.8125 21.6561 14.2432 21.2934 14.6059C20.9307 14.9686 20.5 15.2563 20.0261 15.4527C19.5522 15.649 19.0442 15.75 18.5312 15.75H12.575L7.78906 19.9375C7.56761 20.1311 7.29509 20.2568 7.00407 20.2996C6.71306 20.3424 6.41588 20.3005 6.14807 20.1789C5.88025 20.0572 5.65313 19.861 5.49387 19.6137C5.33461 19.3664 5.24995 19.0785 5.25 18.7844V15.75H4.46875C3.43275 15.75 2.43918 15.3384 1.70661 14.6059C0.97405 13.8733 0.5625 12.8798 0.5625 11.8438V4.03125ZM4.46875 1.6875C3.84715 1.6875 3.25101 1.93443 2.81147 2.37397C2.37193 2.81351 2.125 3.40965 2.125 4.03125V11.8438C2.125 12.4654 2.37193 13.0615 2.81147 13.501C3.25101 13.9406 3.84715 14.1875 4.46875 14.1875H6.8125V18.7156L11.9875 14.1875H18.5312C19.1529 14.1875 19.749 13.9406 20.1885 13.501C20.6281 13.0615 20.875 12.4654 20.875 11.8438V4.03125C20.875 3.40965 20.6281 2.81351 20.1885 2.37397C19.749 1.93443 19.1529 1.6875 18.5312 1.6875H4.46875Z" fill="#FAB13E"/>
</svg>
