<svg width="19" height="19" viewBox="0 0 19 19" fill="none" xmlns="http://www.w3.org/2000/svg">
<path d="M18.5962 9.71377C18.5962 9.08835 18.5408 8.4946 18.4458 7.91669H9.5V11.4871H14.6221C14.3925 12.6588 13.7196 13.6484 12.7221 14.3213V16.6963H15.7779C17.5671 15.0417 18.5962 12.6034 18.5962 9.71377Z" fill="#4285F4"/>
<path d="M9.50024 19C12.0652 19 14.2107 18.145 15.7782 16.6963L12.7223 14.3213C11.8673 14.8913 10.7827 15.2396 9.50024 15.2396C7.02232 15.2396 4.9244 13.5692 4.17232 11.3129H1.02148V13.7592C2.58107 16.8625 5.78732 19 9.50024 19Z" fill="#34A853"/>
<path d="M4.17208 11.3129C3.97417 10.7429 3.87125 10.1333 3.87125 9.50001C3.87125 8.86668 3.98208 8.25709 4.17208 7.68709V5.24084H1.02125C0.372083 6.52334 0 7.96418 0 9.50001C0 11.0358 0.372083 12.4767 1.02125 13.7592L4.17208 11.3129Z" fill="#FBBC05"/>
<path d="M9.50023 3.76042C10.9015 3.76042 12.1523 4.24334 13.1419 5.18542L15.8494 2.47792C14.2107 0.942084 12.0652 0 9.50023 0C5.78732 0 2.58107 2.1375 1.02148 5.24084L4.17232 7.68709C4.9244 5.43084 7.02232 3.76042 9.50023 3.76042Z" fill="#EA4335"/>
</svg>
