<svg width="22" height="22" viewBox="0 0 22 22" fill="none" xmlns="http://www.w3.org/2000/svg">
<ellipse cx="10.7122" cy="11" rx="10.7122" ry="11" fill="#FAB13E"/>
<path d="M10.4928 14.64C11.9128 14.64 13.1028 13.86 13.1028 12.5C13.1028 11.52 12.4628 10.91 11.6228 10.67V10.62C12.4128 10.32 12.8528 9.73 12.8528 8.94C12.8528 7.67 11.8828 6.97 10.4528 6.97C9.59282 6.97 8.88282 7.32 8.24282 7.87L8.99282 8.78C9.43282 8.37 9.86282 8.12 10.3928 8.12C11.0228 8.12 11.3828 8.47 11.3828 9.05C11.3828 9.71 10.9428 10.17 9.58282 10.17V11.23C11.1928 11.23 11.6228 11.68 11.6228 12.41C11.6228 13.07 11.1128 13.45 10.3528 13.45C9.68282 13.45 9.15282 13.11 8.71282 12.68L8.01282 13.61C8.53282 14.21 9.32282 14.64 10.4928 14.64Z" fill="white"/>
</svg>
