<svg width="22" height="22" viewBox="0 0 22 22" fill="none" xmlns="http://www.w3.org/2000/svg">
<ellipse cx="10.7122" cy="11" rx="10.7122" ry="11" fill="#FAB13E"/>
<path d="M10.3128 14.64C11.7828 14.64 13.1528 13.43 13.1528 10.63C13.1528 8.07 11.8928 6.97 10.4828 6.97C9.22282 6.97 8.16282 7.91 8.16282 9.44C8.16282 11.01 9.04282 11.76 10.2828 11.76C10.8028 11.76 11.4728 11.43 11.8728 10.88L11.7928 9.88C11.4328 10.49 10.9728 10.72 10.5528 10.72C9.92282 10.72 9.50282 10.3 9.50282 9.44C9.50282 8.52 9.95282 8.07 10.5128 8.07C11.2328 8.07 11.8028 8.74 11.8028 10.63C11.8028 12.75 11.0928 13.45 10.2228 13.45C9.78282 13.45 9.33282 13.22 9.05282 12.91L8.27282 13.8C8.72282 14.26 9.38282 14.64 10.3128 14.64Z" fill="white"/>
</svg>
