<svg width="22" height="22" viewBox="0 0 22 22" fill="none" xmlns="http://www.w3.org/2000/svg">
<ellipse cx="10.7122" cy="11" rx="10.7122" ry="11" fill="#FAB13E"/>
<path d="M10.9128 14.64C12.1728 14.64 13.2428 13.69 13.2428 12.17C13.2428 10.58 12.3528 9.85 11.1128 9.85C10.6128 9.85 9.92282 10.17 9.53282 10.72L9.59282 11.72C9.96282 11.11 10.4328 10.89 10.8428 10.89C11.4728 10.89 11.8928 11.29 11.8928 12.17C11.8928 13.07 11.4428 13.53 10.8928 13.53C10.1628 13.53 9.60282 12.82 9.60282 10.9C9.60282 8.84 10.3128 8.15 11.2128 8.15C11.6328 8.15 12.0928 8.39 12.3428 8.68L13.1328 7.81C12.6828 7.34 12.0228 6.97 11.1228 6.97C9.62282 6.97 8.25282 8.15 8.25282 10.9C8.25282 13.51 9.51282 14.64 10.9128 14.64Z" fill="white"/>
</svg>
