<svg width="22" height="22" viewBox="0 0 22 22" fill="none" xmlns="http://www.w3.org/2000/svg">
<ellipse cx="10.7122" cy="11" rx="10.7122" ry="11" fill="#FAB13E"/>
<path d="M10.7028 14.64C12.1928 14.64 13.1928 13.79 13.1928 12.67C13.1928 11.65 12.6328 11.06 11.9528 10.69V10.64C12.4328 10.29 12.9028 9.68 12.9028 8.94C12.9028 7.76 12.0628 6.98 10.7528 6.98C9.46282 6.98 8.51282 7.74 8.51282 8.93C8.51282 9.71 8.93282 10.28 9.49282 10.69V10.73C8.81282 11.09 8.23282 11.72 8.23282 12.67C8.23282 13.83 9.28282 14.64 10.7028 14.64ZM11.1728 10.28C10.3928 9.97 9.81282 9.62 9.81282 8.93C9.81282 8.34 10.2128 8.01 10.7228 8.01C11.3328 8.01 11.7028 8.43 11.7028 9.04C11.7028 9.48 11.5328 9.9 11.1728 10.28ZM10.7328 13.6C10.0428 13.6 9.49282 13.17 9.49282 12.5C9.49282 11.95 9.77282 11.45 10.1828 11.13C11.1328 11.53 11.8228 11.84 11.8228 12.61C11.8228 13.25 11.3728 13.6 10.7328 13.6Z" fill="white"/>
</svg>
