<svg width="22" height="22" viewBox="0 0 22 22" fill="none" xmlns="http://www.w3.org/2000/svg">
<ellipse cx="10.7122" cy="11" rx="10.7122" ry="11" fill="#FAB13E"/>
<path d="M10.5228 14.64C11.8828 14.64 13.1128 13.69 13.1128 12.05C13.1128 10.43 12.0728 9.7 10.8328 9.7C10.4928 9.7 10.2328 9.77 9.94282 9.9L10.0828 8.33H12.7728V7.1H8.81282L8.60282 10.69L9.28282 11.13C9.71282 10.85 9.95282 10.74 10.3928 10.74C11.1328 10.74 11.6328 11.22 11.6328 12.08C11.6328 12.96 11.1028 13.45 10.3228 13.45C9.64282 13.45 9.11282 13.11 8.70282 12.7L8.01282 13.63C8.57282 14.18 9.35282 14.64 10.5228 14.64Z" fill="white"/>
</svg>
