<svg width="19" height="23" viewBox="0 0 19 23" fill="none" xmlns="http://www.w3.org/2000/svg">
<path d="M11.9689 0.643755C10.797 0.317192 9.88139 1.19063 9.55483 2.00469C9.17983 2.94219 8.84702 3.60001 8.45171 4.38594C8.16642 4.94986 7.88879 5.51762 7.61889 6.08907C6.87671 7.66719 6.13764 8.67657 5.59858 9.28438C5.40263 9.50833 5.19117 9.71822 4.96577 9.91251C4.9146 9.95646 4.86197 9.99867 4.80796 10.0391L4.78296 10.0578L1.85796 11.7813C1.22474 12.1548 0.743496 12.7397 0.498866 13.433C0.254237 14.1263 0.261882 14.8837 0.520457 15.5719L1.33296 17.7344C1.49978 18.1786 1.7656 18.5791 2.11023 18.9053C2.45487 19.2315 2.86928 19.475 3.32202 19.6172L11.6908 22.2453C12.186 22.4009 12.7072 22.4563 13.2241 22.4081C13.7409 22.36 14.243 22.2093 14.701 21.9649C15.1589 21.7205 15.5636 21.3873 15.8913 20.9848C16.219 20.5822 16.4631 20.1183 16.6095 19.6203L18.7408 12.3594C18.8775 11.8934 18.9037 11.4019 18.8173 10.9239C18.731 10.446 18.5344 9.9948 18.2432 9.6061C17.952 9.2174 17.5742 8.90192 17.1399 8.68469C16.7055 8.46747 16.2264 8.35448 15.7408 8.35469H13.5783C13.6814 8.00001 13.7861 7.60626 13.883 7.19844C14.0876 6.32032 14.2626 5.31876 14.2455 4.48282C14.2314 3.70626 14.1517 2.89063 13.833 2.19844C13.4908 1.45625 12.8923 0.898442 11.9705 0.642192L11.9689 0.643755ZM4.77827 10.0625L4.77514 10.0641L4.77827 10.0625Z" fill="#FAB13E"/>
</svg>
