<svg width="19" height="23" viewBox="0 0 19 23" fill="none" xmlns="http://www.w3.org/2000/svg">
<path d="M14.1876 4.41979C14.1876 1.87604 13.0001 0.0447922 11.0553 0.0447922C9.98652 0.0447922 9.61986 0.671875 9.23652 2.12813C9.1584 2.43021 9.11986 2.57604 9.07923 2.72083C8.97402 3.09375 8.79069 3.73125 8.53027 4.62708C8.52316 4.65104 8.51264 4.67384 8.49902 4.69479L5.51465 9.36771C4.80822 10.4731 3.76583 11.3227 2.54069 11.7917L2.04798 11.9802C1.41886 12.2212 0.894802 12.6762 0.567889 13.2652C0.240976 13.8543 0.132132 14.5397 0.260483 15.201L0.681316 17.374C0.804467 18.0091 1.10706 18.5957 1.55327 19.0643C1.99947 19.5328 2.5706 19.8637 3.19902 20.0177L11.1449 21.9656C12.4116 22.276 13.7497 22.0736 14.868 21.4026C15.9863 20.7315 16.7945 19.6461 17.1167 18.3823L18.5907 12.601C18.7182 12.1012 18.7297 11.5788 18.6244 11.0737C18.5191 10.5687 18.2998 10.0944 17.9833 9.6871C17.6667 9.27977 17.2612 8.95018 16.7978 8.7235C16.3344 8.49682 15.8253 8.37905 15.3094 8.37917H13.4115C13.9282 6.67812 14.1886 5.36667 14.1886 4.41979H14.1876ZM1.79173 14.9031C1.73351 14.6026 1.78305 14.2911 1.93163 14.0235C2.08022 13.7558 2.31836 13.5491 2.60423 13.4396L3.09798 13.251C4.63515 12.6625 5.94297 11.5964 6.82923 10.2094L9.81569 5.53646C9.90944 5.39063 9.98132 5.23021 10.0292 5.06354C10.2917 4.1625 10.4751 3.52188 10.5813 3.14375C10.6391 2.93854 10.6943 2.73262 10.7469 2.52604C10.9449 1.77396 11.0417 1.60833 11.0542 1.60833C11.9584 1.60833 12.624 2.63333 12.624 4.41979C12.624 5.34063 12.2844 6.85208 11.599 8.91458C11.5601 9.03191 11.5496 9.15679 11.5684 9.27896C11.5871 9.40113 11.6346 9.51711 11.7069 9.61736C11.7792 9.71762 11.8742 9.79929 11.9842 9.85567C12.0942 9.91204 12.216 9.94152 12.3396 9.94167H15.3084C15.5861 9.94164 15.8602 10.0051 16.1097 10.1271C16.3591 10.2492 16.5774 10.4266 16.7478 10.6459C16.9183 10.8652 17.0364 11.1205 17.0931 11.3923C17.1498 11.6642 17.1436 11.9455 17.0751 12.2146L15.6011 17.9958C15.3805 18.8605 14.8274 19.6031 14.0621 20.0621C13.2969 20.5211 12.3813 20.6594 11.5146 20.4469L3.56882 18.499C3.23061 18.416 2.92324 18.2379 2.68307 17.9857C2.44291 17.7336 2.27999 17.4179 2.21361 17.076L1.79173 14.9031Z" fill="#FAB13E"/>
</svg>
