<svg width="322" height="54" viewBox="0 0 322 54" fill="none" xmlns="http://www.w3.org/2000/svg">
<rect x="1" y="1" width="320" height="52" rx="15" fill="white" stroke="#979797"/>
<path d="M113.29 21.616V22.944H122.442V21.616H113.29ZM111.706 27.856V29.232H124.922V27.856H111.706ZM117.418 28.8V35.344H119.098V28.8H117.418ZM121.61 21.616V22.896C121.61 24.384 121.61 26.096 121.05 28.496L122.698 28.704C123.258 26.176 123.258 24.448 123.258 22.896V21.616H121.61ZM128.072 21.312V22.64H137.416V21.312H128.072ZM126.424 26.016V27.36H139.672V26.016H126.424ZM136.376 21.312V22.272C136.376 23.296 136.376 24.528 135.992 26.256L137.64 26.416C138.024 24.672 138.024 23.328 138.024 22.272V21.312H136.376ZM127.944 28.608V29.92H136.36V31.232H127.96V34.288H129.64V32.496H138.024V28.608H127.944ZM127.96 33.872V35.184H138.408V33.872H127.96ZM148.625 21.776C146.449 21.776 144.881 23.776 144.881 26.928C144.881 30.08 146.449 32.096 148.625 32.096C150.801 32.096 152.369 30.08 152.369 26.928C152.369 23.776 150.801 21.776 148.625 21.776ZM148.625 23.296C149.889 23.296 150.769 24.656 150.769 26.928C150.769 29.216 149.889 30.592 148.625 30.592C147.361 30.592 146.481 29.216 146.481 26.928C146.481 24.656 147.361 23.296 148.625 23.296ZM154.385 20.704V35.328H156.065V20.704H154.385ZM155.681 26.4V27.792H158.337V26.4H155.681ZM169.808 20.688V35.344H171.488V20.688H169.808ZM163.696 21.776C161.52 21.776 159.936 23.776 159.936 26.928C159.936 30.08 161.52 32.096 163.696 32.096C165.888 32.096 167.472 30.08 167.472 26.928C167.472 23.776 165.888 21.776 163.696 21.776ZM163.696 23.296C164.976 23.296 165.856 24.656 165.856 26.928C165.856 29.216 164.976 30.592 163.696 30.592C162.416 30.592 161.536 29.216 161.536 26.928C161.536 24.656 162.416 23.296 163.696 23.296ZM184.526 20.704V35.36H186.206V20.704H184.526ZM175.086 30.384V31.792H176.302C179.326 31.792 181.214 31.712 183.326 31.312L183.166 29.92C181.086 30.304 179.278 30.384 176.302 30.384H175.086ZM175.086 22.048V30.912H176.75V23.424H182.046V22.048H175.086ZM188.893 32.24V33.616H202.141V32.24H188.893ZM194.653 29.264V32.8H196.317V29.264H194.653ZM190.445 21.728V23.072H198.893V25.024H190.477V29.072H192.141V26.352H200.557V21.728H190.445ZM190.477 28.384V29.744H200.893V28.384H190.477ZM207.206 32.24V33.616H220.454V32.24H207.206ZM212.966 29.264V32.8H214.63V29.264H212.966ZM208.758 21.728V23.072H217.206V25.024H208.79V29.072H210.454V26.352H218.87V21.728H208.758ZM208.79 28.384V29.744H219.206V28.384H208.79ZM223.316 22.16V23.504H232.66V22.16H223.316ZM221.924 31.92V33.296H235.14V31.92H221.924ZM231.764 22.16V23.744C231.764 25.632 231.764 27.776 231.204 30.672L232.884 30.832C233.428 27.744 233.428 25.696 233.428 23.744V22.16H231.764ZM247.011 20.72V31.312H248.691V20.72H247.011ZM239.139 33.68V35.04H249.107V33.68H239.139ZM239.139 30.24V34.192H240.819V30.24H239.139ZM240.803 21.696C238.595 21.696 236.915 23.2 236.915 25.344C236.915 27.456 238.595 28.992 240.803 28.992C243.011 28.992 244.675 27.456 244.675 25.344C244.675 23.2 243.011 21.696 240.803 21.696ZM240.803 23.136C242.083 23.136 243.043 24 243.043 25.344C243.043 26.656 242.083 27.52 240.803 27.52C239.523 27.52 238.547 26.656 238.547 25.344C238.547 24 239.523 23.136 240.803 23.136Z" fill="#979797"/>
<path d="M89.5962 27.7138C89.5962 27.0884 89.5408 26.4946 89.4458 25.9167H80.5V29.4871H85.6221C85.3925 30.6588 84.7196 31.6484 83.7221 32.3213V34.6963H86.7779C88.5671 33.0417 89.5962 30.6034 89.5962 27.7138Z" fill="#4285F4"/>
<path d="M80.5002 37C83.0652 37 85.2107 36.145 86.7782 34.6963L83.7223 32.3213C82.8673 32.8913 81.7827 33.2396 80.5002 33.2396C78.0223 33.2396 75.9244 31.5692 75.1723 29.3129H72.0215V31.7592C73.5811 34.8625 76.7873 37 80.5002 37Z" fill="#34A853"/>
<path d="M75.1721 29.3129C74.9742 28.7429 74.8712 28.1333 74.8712 27.5C74.8712 26.8667 74.9821 26.2571 75.1721 25.6871V23.2408H72.0212C71.3721 24.5233 71 25.9642 71 27.5C71 29.0358 71.3721 30.4767 72.0212 31.7592L75.1721 29.3129Z" fill="#FBBC05"/>
<path d="M80.5002 21.7604C81.9015 21.7604 83.1523 22.2433 84.1419 23.1854L86.8494 20.4779C85.2107 18.9421 83.0652 18 80.5002 18C76.7873 18 73.5811 20.1375 72.0215 23.2408L75.1723 25.6871C75.9244 23.4308 78.0223 21.7604 80.5002 21.7604Z" fill="#EA4335"/>
</svg>
