<svg width="18" height="25" viewBox="0 0 18 25" fill="none" xmlns="http://www.w3.org/2000/svg">
<path d="M1.73766 24.3187C1.59751 24.4192 1.43237 24.4791 1.26039 24.4918C1.08842 24.5045 0.916272 24.4695 0.762897 24.3907C0.609521 24.3119 0.480857 24.1923 0.391057 24.045C0.301256 23.8978 0.253799 23.7287 0.253906 23.5563V4.8125C0.253906 3.73506 0.681919 2.70175 1.44379 1.93988C2.20565 1.17801 3.23897 0.75 4.31641 0.75H13.6889C14.7663 0.75 15.7997 1.17801 16.5615 1.93988C17.3234 2.70175 17.7514 3.73506 17.7514 4.8125V23.5575C17.7514 23.73 17.7039 23.8993 17.6139 24.0465C17.524 24.1937 17.3951 24.3133 17.2416 24.392C17.088 24.4707 16.9157 24.5055 16.7437 24.4926C16.5716 24.4797 16.4065 24.4195 16.2664 24.3187L9.00391 19.0925L1.73891 24.3175L1.73766 24.3187ZM15.8777 4.8125C15.8777 4.23234 15.6472 3.67594 15.237 3.2657C14.8267 2.85547 14.2703 2.625 13.6902 2.625H4.31641C3.73625 2.625 3.17985 2.85547 2.76961 3.2657C2.35937 3.67594 2.12891 4.23234 2.12891 4.8125V21.7275L8.45516 17.1763C8.61465 17.0615 8.80617 16.9998 9.00266 16.9998C9.19914 16.9998 9.39066 17.0615 9.55016 17.1763L15.8764 21.7275V4.8125H15.8777Z" fill="#323643"/>
</svg>
