<svg width="22" height="28" viewBox="0 0 22 28" fill="none" xmlns="http://www.w3.org/2000/svg">
<path d="M5.375 6.5C5.12636 6.5 4.8879 6.59877 4.71209 6.77459C4.53627 6.9504 4.4375 7.18886 4.4375 7.4375C4.4375 7.68614 4.53627 7.9246 4.71209 8.10041C4.8879 8.27623 5.12636 8.375 5.375 8.375V6.5ZM9.125 8.375C9.37364 8.375 9.6121 8.27623 9.78791 8.10041C9.96373 7.9246 10.0625 7.68614 10.0625 7.4375C10.0625 7.18886 9.96373 6.9504 9.78791 6.77459C9.6121 6.59877 9.37364 6.5 9.125 6.5V8.375ZM5.375 13.0625C5.12636 13.0625 4.8879 13.1613 4.71209 13.3371C4.53627 13.5129 4.4375 13.7514 4.4375 14C4.4375 14.2486 4.53627 14.4871 4.71209 14.6629C4.8879 14.8387 5.12636 14.9375 5.375 14.9375V13.0625ZM16.625 14.9375C16.8736 14.9375 17.1121 14.8387 17.2879 14.6629C17.4637 14.4871 17.5625 14.2486 17.5625 14C17.5625 13.7514 17.4637 13.5129 17.2879 13.3371C17.1121 13.1613 16.8736 13.0625 16.625 13.0625V14.9375ZM5.375 16.8125C5.12636 16.8125 4.8879 16.9113 4.71209 17.0871C4.53627 17.2629 4.4375 17.5014 4.4375 17.75C4.4375 17.9986 4.53627 18.2371 4.71209 18.4129C4.8879 18.5887 5.12636 18.6875 5.375 18.6875V16.8125ZM16.625 18.6875C16.8736 18.6875 17.1121 18.5887 17.2879 18.4129C17.4637 18.2371 17.5625 17.9986 17.5625 17.75C17.5625 17.5014 17.4637 17.2629 17.2879 17.0871C17.1121 16.9113 16.8736 16.8125 16.625 16.8125V18.6875ZM5.375 20.5625C5.12636 20.5625 4.8879 20.6613 4.71209 20.8371C4.53627 21.0129 4.4375 21.2514 4.4375 21.5C4.4375 21.7486 4.53627 21.9871 4.71209 22.1629C4.8879 22.3387 5.12636 22.4375 5.375 22.4375V20.5625ZM9.125 22.4375C9.37364 22.4375 9.6121 22.3387 9.78791 22.1629C9.96373 21.9871 10.0625 21.7486 10.0625 21.5C10.0625 21.2514 9.96373 21.0129 9.78791 20.8371C9.6121 20.6613 9.37364 20.5625 9.125 20.5625V22.4375ZM3.5 2.75H18.5V0.875H3.5V2.75ZM19.4375 3.6875V24.3125H21.3125V3.6875H19.4375ZM18.5 25.25H3.5V27.125H18.5V25.25ZM2.5625 24.3125V3.6875H0.6875V24.3125H2.5625ZM3.5 25.25C3.25136 25.25 3.0129 25.1512 2.83709 24.9754C2.66127 24.7996 2.5625 24.5611 2.5625 24.3125H0.6875C0.6875 25.0584 0.983816 25.7738 1.51126 26.3012C2.03871 26.8287 2.75408 27.125 3.5 27.125V25.25ZM19.4375 24.3125C19.4375 24.5611 19.3387 24.7996 19.1629 24.9754C18.9871 25.1512 18.7486 25.25 18.5 25.25V27.125C19.2459 27.125 19.9613 26.8287 20.4887 26.3012C21.0162 25.7738 21.3125 25.0584 21.3125 24.3125H19.4375ZM18.5 2.75C18.7486 2.75 18.9871 2.84877 19.1629 3.02459C19.3387 3.2004 19.4375 3.43886 19.4375 3.6875H21.3125C21.3125 2.94158 21.0162 2.22621 20.4887 1.69876C19.9613 1.17132 19.2459 0.875 18.5 0.875V2.75ZM3.5 0.875C2.75408 0.875 2.03871 1.17132 1.51126 1.69876C0.983816 2.22621 0.6875 2.94158 0.6875 3.6875H2.5625C2.5625 3.43886 2.66127 3.2004 2.83709 3.02459C3.0129 2.84877 3.25136 2.75 3.5 2.75V0.875ZM5.375 8.375H9.125V6.5H5.375V8.375ZM5.375 14.9375H16.625V13.0625H5.375V14.9375ZM5.375 18.6875H16.625V16.8125H5.375V18.6875ZM5.375 22.4375H9.125V20.5625H5.375V22.4375Z" fill="#323643"/>
</svg>
