<svg width="321" height="68" viewBox="0 0 321 68" fill="none" xmlns="http://www.w3.org/2000/svg">
<rect width="321" height="68" rx="15" fill="#FAB13E"/>
<path d="M46.25 29.6417V38.36C46.25 39.31 47.165 39.9117 47.915 39.4567L55.094 35.0967C55.2711 34.989 55.4189 34.8304 55.5219 34.6375C55.6248 34.4445 55.6791 34.2243 55.6791 34C55.6791 33.7757 55.6248 33.5555 55.5219 33.3626C55.4189 33.1696 55.2711 33.011 55.094 32.9033L47.915 28.5433C47.7436 28.4391 47.5506 28.3863 47.3552 28.3901C47.1599 28.3939 46.9687 28.4542 46.8007 28.5651C46.6326 28.6759 46.4935 28.8335 46.3969 29.0223C46.3004 29.2111 46.2497 29.4245 46.25 29.6417ZM39.875 19C38.5821 19 37.3421 19.5707 36.4279 20.5865C35.5136 21.6023 35 22.9801 35 24.4167V43.5833C35 45.0199 35.5136 46.3977 36.4279 47.4135C37.3421 48.4293 38.5821 49 39.875 49H60.125C60.7652 49 61.3991 48.8599 61.9906 48.5877C62.582 48.3155 63.1195 47.9165 63.5721 47.4135C64.0248 46.9105 64.3839 46.3134 64.6289 45.6562C64.8739 44.999 65 44.2947 65 43.5833V24.4167C65 23.7053 64.8739 23.001 64.6289 22.3438C64.3839 21.6866 64.0248 21.0895 63.5721 20.5865C63.1195 20.0835 62.582 19.6845 61.9906 19.4123C61.3991 19.1401 60.7652 19 60.125 19H39.875ZM37.25 24.4167C37.25 22.8067 38.426 21.5 39.875 21.5H60.125C61.574 21.5 62.75 22.8067 62.75 24.4167V43.5833C62.75 44.3569 62.4734 45.0987 61.9812 45.6457C61.4889 46.1927 60.8212 46.5 60.125 46.5H39.875C39.1788 46.5 38.5111 46.1927 38.0188 45.6457C37.5266 45.0987 37.25 44.3569 37.25 43.5833V24.4167Z" fill="white"/>
<path d="M106.845 30.13V31.32H110.695V30.13H106.845ZM106.845 33.028V34.218H110.695V33.028H106.845ZM104.605 29.094C102.701 29.094 101.273 30.382 101.273 32.174C101.273 33.966 102.701 35.254 104.605 35.254C106.495 35.254 107.937 33.966 107.937 32.174C107.937 30.382 106.495 29.094 104.605 29.094ZM104.605 30.34C105.711 30.34 106.537 31.054 106.537 32.174C106.537 33.28 105.711 34.008 104.605 34.008C103.499 34.008 102.673 33.28 102.673 32.174C102.673 31.054 103.499 30.34 104.605 30.34ZM110.233 28.366V35.898H111.703V28.366H110.233ZM107.433 36.192C104.773 36.192 103.121 37.102 103.121 38.67C103.121 40.238 104.773 41.148 107.433 41.148C110.093 41.148 111.745 40.238 111.745 38.67C111.745 37.102 110.093 36.192 107.433 36.192ZM107.433 37.326C109.253 37.326 110.303 37.802 110.303 38.67C110.303 39.524 109.253 40 107.433 40C105.613 40 104.563 39.524 104.563 38.67C104.563 37.802 105.613 37.326 107.433 37.326ZM116.952 29.038V30.27C116.952 32.132 115.874 33.854 113.858 34.568L114.628 35.73C116.896 34.89 118.156 32.776 118.156 30.27V29.038H116.952ZM117.232 29.038V30.396C117.232 32.664 118.492 34.596 120.662 35.366L121.432 34.218C119.514 33.588 118.422 32.048 118.422 30.396V29.038H117.232ZM122.496 28.366V36.038H123.966V28.366H122.496ZM123.56 31.516V32.734H125.772V31.516H123.56ZM119.85 36.36C117.204 36.36 115.58 37.242 115.58 38.754C115.58 40.266 117.204 41.148 119.85 41.148C122.482 41.148 124.106 40.266 124.106 38.754C124.106 37.242 122.482 36.36 119.85 36.36ZM119.85 37.508C121.628 37.508 122.65 37.942 122.65 38.754C122.65 39.566 121.628 40 119.85 40C118.072 40 117.036 39.566 117.036 38.754C117.036 37.942 118.072 37.508 119.85 37.508ZM132.631 29.108C129.971 29.108 127.927 30.536 127.927 32.706C127.927 34.89 129.971 36.318 132.631 36.318C135.305 36.318 137.335 34.89 137.335 32.706C137.335 30.536 135.305 29.108 132.631 29.108ZM132.631 30.298C134.535 30.298 135.921 31.236 135.921 32.706C135.921 34.162 134.535 35.114 132.631 35.114C130.741 35.114 129.355 34.162 129.355 32.706C129.355 31.236 130.741 30.298 132.631 30.298ZM126.863 38.32V39.538H138.455V38.32H126.863ZM139.742 38.46V39.664H151.334V38.46H139.742ZM144.782 35.856V38.95H146.238V35.856H144.782ZM141.1 29.262V30.438H148.492V32.146H141.128V35.688H142.584V33.308H149.948V29.262H141.1ZM141.128 35.086V36.276H150.242V35.086H141.128ZM164.277 28.38V37.956H165.747V28.38H164.277ZM165.313 32.44V33.658H167.553V32.44H165.313ZM155.779 29.836V30.998H163.311V29.836H155.779ZM159.545 31.586C157.711 31.586 156.437 32.566 156.437 34.008C156.437 35.464 157.711 36.43 159.545 36.43C161.365 36.43 162.639 35.464 162.639 34.008C162.639 32.566 161.365 31.586 159.545 31.586ZM159.545 32.72C160.553 32.72 161.239 33.21 161.239 34.008C161.239 34.82 160.553 35.296 159.545 35.296C158.537 35.296 157.851 34.82 157.851 34.008C157.851 33.21 158.537 32.72 159.545 32.72ZM158.817 28.366V30.41H160.273V28.366H158.817ZM157.655 39.72V40.91H166.265V39.72H157.655ZM157.655 37.214V40.224H159.125V37.214H157.655ZM174.678 31.88V33.07H178.178V31.88H174.678ZM177.772 28.38V37.83H179.242V28.38H177.772ZM170.912 39.72V40.91H179.536V39.72H170.912ZM170.912 36.906V40.364H172.382V36.906H170.912ZM169.218 29.22V35.73H175.126V29.22H173.684V31.334H170.674V29.22H169.218ZM170.674 32.468H173.684V34.554H170.674V32.468ZM186.675 33.224V34.414H188.943V33.224H186.675ZM191.043 28.366V41.162H192.443V28.366H191.043ZM188.467 28.604V40.546H189.853V28.604H188.467ZM184.393 29.36C182.727 29.36 181.649 31.096 181.649 33.896C181.649 36.71 182.727 38.446 184.393 38.446C186.073 38.446 187.151 36.71 187.151 33.896C187.151 31.096 186.073 29.36 184.393 29.36ZM184.393 30.732C185.275 30.732 185.807 31.88 185.807 33.896C185.807 35.912 185.275 37.06 184.393 37.06C183.525 37.06 182.993 35.912 182.993 33.896C182.993 31.88 183.525 30.732 184.393 30.732ZM202.572 32.51V34.232H204.028V32.51H202.572ZM203.314 28.506C200.444 28.506 198.764 29.276 198.764 30.704C198.764 32.118 200.444 32.902 203.314 32.902C206.184 32.902 207.878 32.118 207.878 30.704C207.878 29.276 206.184 28.506 203.314 28.506ZM203.314 29.598C205.302 29.598 206.352 29.976 206.352 30.704C206.352 31.432 205.302 31.81 203.314 31.81C201.34 31.81 200.276 31.432 200.276 30.704C200.276 29.976 201.34 29.598 203.314 29.598ZM197.532 33.742V34.918H209.096V33.742H197.532ZM198.904 35.814V36.92H206.212V37.83H198.918V40.252H200.374V38.88H207.654V35.814H198.904ZM198.918 39.916V41.05H208.018V39.916H198.918ZM219.511 28.352V41.176H220.981V28.352H219.511ZM211.139 36.934V38.138H212.231C214.485 38.138 216.389 38.054 218.601 37.676L218.447 36.486C216.291 36.85 214.429 36.934 212.231 36.934H211.139ZM211.111 29.5V30.69H215.591V33.07H211.139V37.382H212.623V34.246H217.075V29.5H211.111ZM232.39 28.366V41.162H233.86V28.366H232.39ZM228.638 29.724V29.976C228.638 33.392 227.084 35.926 223.402 37.704L224.172 38.88C228.568 36.738 230.08 33.518 230.08 29.724H228.638ZM224.032 29.724V30.9H229.296V29.724H224.032Z" fill="white"/>
</svg>
