<svg width="158" height="158" viewBox="0 0 158 158" fill="none" xmlns="http://www.w3.org/2000/svg">
<rect width="158" height="158" rx="15" fill="#FAB13E"/>
<path d="M72.9134 98.076V108.948H73.9094V98.076H72.9134ZM68.1854 98.916C66.5894 98.916 65.4374 100.392 65.4374 102.696C65.4374 105.012 66.5894 106.488 68.1854 106.488C69.7934 106.488 70.9454 105.012 70.9454 102.696C70.9454 100.392 69.7934 98.916 68.1854 98.916ZM68.1854 99.816C69.2534 99.816 69.9854 100.944 69.9854 102.696C69.9854 104.46 69.2534 105.612 68.1854 105.612C67.1294 105.612 66.3854 104.46 66.3854 102.696C66.3854 100.944 67.1294 99.816 68.1854 99.816ZM78.5885 104.796V108.936H79.6085V104.796H78.5885ZM82.3205 104.796V108.936H83.3405V104.796H82.3205ZM76.0685 104.256V105.084H85.9085V104.256H76.0685ZM80.9645 98.52C78.7085 98.52 77.1725 99.432 77.1725 100.884C77.1725 102.324 78.7085 103.248 80.9645 103.248C83.2325 103.248 84.7565 102.324 84.7565 100.884C84.7565 99.432 83.2325 98.52 80.9645 98.52ZM80.9645 99.324C82.6205 99.324 83.7365 99.936 83.7365 100.884C83.7365 101.832 82.6205 102.444 80.9645 102.444C79.3085 102.444 78.1805 101.832 78.1805 100.884C78.1805 99.936 79.3085 99.324 80.9645 99.324ZM89.9395 98.604V99.66C89.9395 101.28 88.8475 102.78 87.2035 103.38L87.7075 104.172C89.5435 103.476 90.7675 101.712 90.7675 99.66V98.604H89.9395ZM90.1195 98.604V99.66C90.1195 101.652 91.3435 103.308 93.1555 103.968L93.6595 103.188C92.0515 102.624 90.9355 101.22 90.9355 99.66V98.604H90.1195ZM88.7635 105.168V105.984H95.0035V108.936H96.0115V105.168H88.7635ZM95.0035 98.088V104.616H96.0115V98.088H95.0035Z" fill="white"/>
<path d="M51.9285 127.364L52.6005 127.052C51.5685 125.348 51.0645 123.32 51.0645 121.28C51.0645 119.24 51.5685 117.212 52.6005 115.508L51.9285 115.184C50.8125 116.984 50.1525 118.928 50.1525 121.28C50.1525 123.644 50.8125 125.564 51.9285 127.364ZM56.2472 125.168C57.7232 125.168 59.1272 124.064 59.1272 122.144C59.1272 120.2 57.9392 119.336 56.4752 119.336C55.9472 119.336 55.5512 119.468 55.1552 119.684L55.3832 117.14H58.7072V116.204H54.4232L54.1472 120.32L54.7352 120.692C55.2392 120.356 55.6112 120.164 56.1992 120.164C57.2912 120.164 58.0112 120.92 58.0112 122.18C58.0112 123.452 57.1832 124.256 56.1392 124.256C55.1312 124.256 54.4832 123.788 53.9912 123.272L53.4392 123.992C54.0392 124.592 54.8792 125.168 56.2472 125.168ZM68.6035 115.088V125.936H69.5635V115.088H68.6035ZM66.8515 119.444V120.26H68.9275V119.444H66.8515ZM64.0435 116.48V116.672C64.0435 119.18 63.0835 121.376 60.3595 122.9L60.9475 123.608C64.0435 121.868 65.0035 119.276 65.0035 116.48H64.0435ZM60.7795 116.48V117.308H64.3795V116.48H60.7795ZM66.1915 115.376V125.408H67.1395V115.376H66.1915ZM74.3145 119.576V121.508H75.3105V119.576H74.3145ZM79.2945 115.088V121.472H80.2905V115.088H79.2945ZM71.4945 119.912C73.5225 119.912 76.1145 119.888 78.4905 119.54L78.4305 118.892C76.1145 119.156 73.4625 119.168 71.3745 119.168L71.4945 119.912ZM73.0185 121.868V122.588H79.3065V123.464H73.0425V125.348H74.0145V124.124H80.2905V121.868H73.0185ZM73.0425 125.096V125.816H80.6505V125.096H73.0425ZM77.1345 120.248V120.896H79.6065V120.248H77.1345ZM74.8785 115.292C73.2585 115.292 72.2025 115.916 72.2025 116.924C72.2025 117.932 73.2585 118.556 74.8785 118.556C76.4865 118.556 77.5425 117.932 77.5425 116.924C77.5425 115.916 76.4865 115.292 74.8785 115.292ZM74.8785 115.988C75.9225 115.988 76.6065 116.348 76.6065 116.924C76.6065 117.5 75.9225 117.86 74.8785 117.86C73.8105 117.86 73.1265 117.5 73.1265 116.924C73.1265 116.348 73.8105 115.988 74.8785 115.988ZM86.3496 121.556C86.9256 121.556 87.5256 121.196 88.0176 120.368L87.4056 119.924C87.1056 120.5 86.7696 120.74 86.3736 120.74C85.6176 120.74 85.0536 119.6 83.9976 119.6C83.4216 119.6 82.8096 119.96 82.3296 120.812L82.9416 121.244C83.2536 120.668 83.5896 120.428 83.9736 120.428C84.7296 120.428 85.3056 121.556 86.3496 121.556ZM92.2455 125H97.0695V124.088H95.2935V116.204H94.4535C93.9855 116.492 93.4215 116.696 92.6295 116.828V117.536H94.2015V124.088H92.2455V125ZM101.086 115.448V116.312C101.086 117.92 100.018 119.288 98.3737 119.828L98.8657 120.632C100.714 119.984 101.902 118.352 101.902 116.312V115.448H101.086ZM101.266 115.448V116.288C101.266 118.184 102.442 119.696 104.218 120.308L104.734 119.528C103.138 119.024 102.07 117.752 102.07 116.288V115.448H101.266ZM105.862 115.088V120.74H106.858V115.088H105.862ZM106.426 117.452V118.28H108.454V117.452H106.426ZM99.9697 121.244V122.036H105.886V123.092H99.9937V125.468H100.978V123.848H106.858V121.244H99.9697ZM99.9937 125.024V125.816H107.254V125.024H99.9937ZM110.073 127.364C111.177 125.564 111.837 123.644 111.837 121.28C111.837 118.928 111.177 116.984 110.073 115.184L109.389 115.508C110.421 117.212 110.925 119.24 110.925 121.28C110.925 123.32 110.421 125.348 109.389 127.052L110.073 127.364Z" fill="white"/>
<path fill-rule="evenodd" clip-rule="evenodd" d="M73.1653 57.3979C73.4869 57.6391 73.7579 57.9413 73.9627 58.2872C74.1675 58.6331 74.3022 59.016 74.3591 59.4139C74.4159 59.8119 74.3938 60.2172 74.294 60.6066C74.1943 60.996 74.0188 61.362 73.7776 61.6836L70.7163 65.7652C70.4312 66.1454 70.0615 66.454 69.6364 66.6665C69.2113 66.8791 68.7426 66.9897 68.2674 66.9897H64.1857C63.3738 66.9897 62.5952 66.6672 62.0211 66.0931C61.447 65.519 61.1245 64.7404 61.1245 63.9285C61.1245 63.1166 61.447 62.338 62.0211 61.7639C62.5952 61.1898 63.3738 60.8673 64.1857 60.8673H66.7368L68.8796 58.0101C69.1208 57.6885 69.423 57.4176 69.7689 57.2128C70.1148 57.0079 70.4977 56.8733 70.8957 56.8164C71.2936 56.7596 71.6989 56.7816 72.0883 56.8814C72.4778 56.9812 72.8437 57.1567 73.1653 57.3979Z" fill="white"/>
<path d="M95.2817 61.2683H92.0123L91.4307 61.001C89.9409 59.3459 87.5287 55.7479 85.5072 54.5122C84.6685 53.994 83.7013 53.7211 82.7154 53.7244H76.9409L77.5389 66.9897H82.3644C83.1669 66.9874 83.9589 66.8076 84.6838 66.4632C85.43 66.1071 86.094 65.5998 86.6338 64.9734L87.2154 64.305C87.9491 65.1204 88.6266 66.9897 89.7154 66.9897H95.4185C96.1021 66.9897 96.6205 66.6887 97.1042 66.152C97.5879 65.6153 97.8593 64.8877 97.8593 64.1295C97.8593 63.3704 97.5879 62.6428 97.1042 62.1071C96.6205 61.5704 95.9654 61.2683 95.2817 61.2683ZM95.8185 46.0714C95.8185 47.8305 95.1197 49.5175 93.8758 50.7614C92.6319 52.0052 90.9449 52.704 89.1858 52.704C87.4267 52.704 85.7397 52.0052 84.4958 50.7614C83.252 49.5175 82.5532 47.8305 82.5532 46.0714C82.5532 44.3123 83.252 42.6252 84.4958 41.3814C85.7397 40.1375 87.4267 39.4387 89.1858 39.4387C90.9449 39.4387 92.6319 40.1375 93.8758 41.3814C95.1197 42.6252 95.8185 44.3123 95.8185 46.0714Z" fill="white"/>
<path fill-rule="evenodd" clip-rule="evenodd" d="M89.1859 50.6632C90.4037 50.6632 91.5717 50.1794 92.4328 49.3183C93.2939 48.4572 93.7777 47.2892 93.7777 46.0714C93.7777 44.8535 93.2939 43.6856 92.4328 42.8245C91.5717 41.9633 90.4037 41.4795 89.1859 41.4795C87.968 41.4795 86.8001 41.9633 85.939 42.8245C85.0778 43.6856 84.594 44.8535 84.594 46.0714C84.594 47.2892 85.0778 48.4572 85.939 49.3183C86.8001 50.1794 87.968 50.6632 89.1859 50.6632ZM89.1859 52.704C90.945 52.704 92.632 52.0052 93.8759 50.7614C95.1197 49.5175 95.8185 47.8305 95.8185 46.0714C95.8185 44.3123 95.1197 42.6252 93.8759 41.3814C92.632 40.1375 90.945 39.4387 89.1859 39.4387C87.4268 39.4387 85.7397 40.1375 84.4959 41.3814C83.252 42.6252 82.5532 44.3123 82.5532 46.0714C82.5532 47.8305 83.252 49.5175 84.4959 50.7614C85.7397 52.0052 87.4268 52.704 89.1859 52.704Z" fill="white"/>
</svg>
