<svg width="25" height="25" viewBox="0 0 25 25" fill="none" xmlns="http://www.w3.org/2000/svg">
<circle cx="12.5" cy="12.5" r="12.5" fill="#FAB13E"/>
<path fill-rule="evenodd" clip-rule="evenodd" d="M12.7275 17.2729C13.1459 17.2729 13.4851 16.9337 13.4851 16.5153L13.4851 13.4851H16.5155C16.9339 13.4851 17.273 13.1459 17.273 12.7275C17.273 12.3091 16.9339 11.9699 16.5155 11.9699L13.4851 11.9699L13.4851 8.93958C13.4851 8.52119 13.1459 8.18201 12.7275 8.18201C12.3091 8.18201 11.9699 8.52118 11.9699 8.93958L11.9699 11.9699L8.9397 11.9699C8.52131 11.9699 8.18213 12.3091 8.18213 12.7275C8.18213 13.1459 8.52131 13.4851 8.9397 13.4851H11.9699L11.9699 16.5153C11.9699 16.9337 12.3091 17.2729 12.7275 17.2729Z" fill="white"/>
</svg>
