<svg width="158" height="158" viewBox="0 0 158 158" fill="none" xmlns="http://www.w3.org/2000/svg">
<rect width="158" height="158" rx="15" fill="#FAB13E"/>
<path d="M55.9481 127.364L56.6201 127.052C55.5881 125.348 55.0841 123.32 55.0841 121.28C55.0841 119.24 55.5881 117.212 56.6201 115.508L55.9481 115.184C54.8321 116.984 54.1721 118.928 54.1721 121.28C54.1721 123.644 54.8321 125.564 55.9481 127.364ZM58.1908 125H63.0148V124.088H61.2388V116.204H60.3988C59.9308 116.492 59.3668 116.696 58.5748 116.828V117.536H60.1468V124.088H58.1908V125ZM67.031 115.448V116.312C67.031 117.92 65.963 119.288 64.319 119.828L64.811 120.632C66.659 119.984 67.847 118.352 67.847 116.312V115.448H67.031ZM67.211 115.448V116.288C67.211 118.184 68.387 119.696 70.163 120.308L70.679 119.528C69.083 119.024 68.015 117.752 68.015 116.288V115.448H67.211ZM71.807 115.088V120.74H72.803V115.088H71.807ZM72.371 117.452V118.28H74.399V117.452H72.371ZM65.915 121.244V122.036H71.831V123.092H65.939V125.468H66.923V123.848H72.803V121.244H65.915ZM65.939 125.024V125.816H73.199V125.024H65.939ZM79.3301 121.556C79.9061 121.556 80.5061 121.196 80.9981 120.368L80.3861 119.924C80.0861 120.5 79.7501 120.74 79.3541 120.74C78.5981 120.74 78.0341 119.6 76.9781 119.6C76.4021 119.6 75.7901 119.96 75.3101 120.812L75.9221 121.244C76.2341 120.668 76.5701 120.428 76.9541 120.428C77.7101 120.428 78.2861 121.556 79.3301 121.556ZM87.3019 125.168C88.7779 125.168 90.1819 124.064 90.1819 122.144C90.1819 120.2 88.9939 119.336 87.5299 119.336C87.0019 119.336 86.6059 119.468 86.2099 119.684L86.4379 117.14H89.7619V116.204H85.4779L85.2019 120.32L85.7899 120.692C86.2939 120.356 86.6659 120.164 87.2539 120.164C88.3459 120.164 89.0659 120.92 89.0659 122.18C89.0659 123.452 88.2379 124.256 87.1939 124.256C86.1859 124.256 85.5379 123.788 85.0459 123.272L84.4939 123.992C85.0939 124.592 85.9339 125.168 87.3019 125.168ZM94.0662 115.448V116.312C94.0662 117.92 92.9982 119.288 91.3542 119.828L91.8462 120.632C93.6942 119.984 94.8822 118.352 94.8822 116.312V115.448H94.0662ZM94.2462 115.448V116.288C94.2462 118.184 95.4222 119.696 97.1982 120.308L97.7142 119.528C96.1182 119.024 95.0502 117.752 95.0502 116.288V115.448H94.2462ZM98.8422 115.088V120.74H99.8382V115.088H98.8422ZM99.4062 117.452V118.28H101.434V117.452H99.4062ZM92.9502 121.244V122.036H98.8662V123.092H92.9742V125.468H93.9582V123.848H99.8382V121.244H92.9502ZM92.9742 125.024V125.816H100.234V125.024H92.9742ZM103.053 127.364C104.157 125.564 104.817 123.644 104.817 121.28C104.817 118.928 104.157 116.984 103.053 115.184L102.369 115.508C103.401 117.212 103.905 119.24 103.905 121.28C103.905 123.32 103.401 125.348 102.369 127.052L103.053 127.364Z" fill="white"/>
<path d="M65.5494 104.796V108.936H66.5694V104.796H65.5494ZM69.2814 104.796V108.936H70.3014V104.796H69.2814ZM63.0294 104.256V105.084H72.8694V104.256H63.0294ZM67.9254 98.52C65.6694 98.52 64.1334 99.432 64.1334 100.884C64.1334 102.324 65.6694 103.248 67.9254 103.248C70.1934 103.248 71.7174 102.324 71.7174 100.884C71.7174 99.432 70.1934 98.52 67.9254 98.52ZM67.9254 99.324C69.5814 99.324 70.6974 99.936 70.6974 100.884C70.6974 101.832 69.5814 102.444 67.9254 102.444C66.2694 102.444 65.1414 101.832 65.1414 100.884C65.1414 99.936 66.2694 99.324 67.9254 99.324ZM76.9605 98.916C75.3645 98.916 74.2365 100.392 74.2365 102.696C74.2365 105.012 75.3645 106.488 76.9605 106.488C78.5565 106.488 79.6845 105.012 79.6845 102.696C79.6845 100.392 78.5565 98.916 76.9605 98.916ZM76.9605 99.816C78.0045 99.816 78.7365 100.944 78.7365 102.696C78.7365 104.46 78.0045 105.612 76.9605 105.612C75.9045 105.612 75.1845 104.46 75.1845 102.696C75.1845 100.944 75.9045 99.816 76.9605 99.816ZM81.4125 98.088V108.936H82.4205V98.088H81.4125ZM82.1805 102.42V103.26H84.1965V102.42H82.1805ZM87.9395 98.604V99.66C87.9395 101.28 86.8475 102.78 85.2035 103.38L85.7075 104.172C87.5435 103.476 88.7675 101.712 88.7675 99.66V98.604H87.9395ZM88.1195 98.604V99.66C88.1195 101.652 89.3435 103.308 91.1555 103.968L91.6595 103.188C90.0515 102.624 88.9355 101.22 88.9355 99.66V98.604H88.1195ZM86.7635 105.168V105.984H93.0035V108.936H94.0115V105.168H86.7635ZM93.0035 98.088V104.616H94.0115V98.088H93.0035Z" fill="white"/>
<g clip-path="url(#clip0_206_2520)">
<path d="M84.8749 36.25C84.8749 39.7021 82.0721 42.5 78.6249 42.5C75.1776 42.5 72.3749 39.7021 72.3749 36.25C72.3749 32.7979 75.1776 30 78.6249 30C82.0721 30 84.8749 32.7979 84.8749 36.25ZM77.0624 67.5V76.875C77.0624 78.6035 75.6659 80 73.9374 80C72.2118 80 70.8134 78.6035 70.8134 76.875V58.1055L68.7704 61.3477C67.8505 62.8125 65.9218 63.252 64.4608 62.334C63.0001 61.416 62.5613 59.4824 63.4807 57.9395L67.3739 51.8359C69.8085 47.9688 74.0546 45.625 78.6249 45.625C83.1952 45.625 87.4432 47.9688 89.8749 51.8359L93.7714 57.9395C94.6893 59.4824 94.2499 61.416 92.7948 62.334C91.33 63.252 89.3964 62.8125 88.4784 61.3477L86.4374 58.1055V76.875C86.4374 78.6035 85.0409 80 83.3124 80C81.5839 80 80.1874 78.6035 80.1874 76.875V67.5H77.0624Z" fill="white"/>
</g>
<defs>
<clipPath id="clip0_206_2520">
<rect width="31.25" height="50" fill="white" transform="translate(63 30)"/>
</clipPath>
</defs>
</svg>
