<svg width="321" height="68" viewBox="0 0 321 68" fill="none" xmlns="http://www.w3.org/2000/svg">
<rect width="321" height="68" rx="15" fill="#FAB13E"/>
<path d="M64 43.3333L56.5 35.5L49.1667 43L43 38.5L36.5 43.3333M45 33.3333C46.1051 33.3333 47.1649 32.8943 47.9463 32.1129C48.7277 31.3315 49.1667 30.2717 49.1667 29.1667C49.1667 28.0616 48.7277 27.0018 47.9463 26.2204C47.1649 25.439 46.1051 25 45 25C43.8949 25 42.8351 25.439 42.0537 26.2204C41.2723 27.0018 40.8333 28.0616 40.8333 29.1667C40.8333 30.2717 41.2723 31.3315 42.0537 32.1129C42.8351 32.8943 43.8949 33.3333 45 33.3333Z" stroke="white" stroke-width="2" stroke-linecap="round" stroke-linejoin="round"/>
<path d="M39.875 19C38.5821 19 37.3421 19.5707 36.4279 20.5865C35.5136 21.6023 35 22.9801 35 24.4167V43.5833C35 45.0199 35.5136 46.3977 36.4279 47.4135C37.3421 48.4293 38.5821 49 39.875 49H60.125C60.7652 49 61.3991 48.8599 61.9906 48.5877C62.582 48.3155 63.1195 47.9165 63.5721 47.4135C64.0248 46.9105 64.3839 46.3134 64.6289 45.6562C64.8739 44.999 65 44.2947 65 43.5833V24.4167C65 23.7053 64.8739 23.001 64.6289 22.3438C64.3839 21.6866 64.0248 21.0895 63.5721 20.5865C63.1195 20.0835 62.582 19.6845 61.9906 19.4123C61.3991 19.1401 60.7652 19 60.125 19H39.875ZM37.25 24.4167C37.25 22.8067 38.426 21.5 39.875 21.5H60.125C61.574 21.5 62.75 22.8067 62.75 24.4167V43.5833C62.75 44.3569 62.4734 45.0987 61.9812 45.6457C61.4889 46.1927 60.8212 46.5 60.125 46.5H39.875C39.1788 46.5 38.5111 46.1927 38.0188 45.6457C37.5266 45.0987 37.25 44.3569 37.25 43.5833V24.4167Z" fill="white"/>
<path d="M45.0002 33.3333C46.1052 33.3333 47.165 32.8943 47.9464 32.1129C48.7278 31.3315 49.1668 30.2717 49.1668 29.1667C49.1668 28.0616 48.7278 27.0018 47.9464 26.2204C47.165 25.439 46.1052 25 45.0002 25C43.8951 25 42.8353 25.439 42.0539 26.2204C41.2725 27.0018 40.8335 28.0616 40.8335 29.1667C40.8335 30.2717 41.2725 31.3315 42.0539 32.1129C42.8353 32.8943 43.8951 33.3333 45.0002 33.3333Z" stroke="white" stroke-width="2" stroke-linecap="round" stroke-linejoin="round"/>
<path d="M39.875 19C38.5821 19 37.3421 19.5707 36.4279 20.5865C35.5136 21.6023 35 22.9801 35 24.4167V43.5833C35 45.0199 35.5136 46.3977 36.4279 47.4135C37.3421 48.4293 38.5821 49 39.875 49H60.125C60.7652 49 61.3991 48.8599 61.9906 48.5877C62.582 48.3155 63.1195 47.9165 63.5721 47.4135C64.0248 46.9105 64.3839 46.3134 64.6289 45.6562C64.8739 44.999 65 44.2947 65 43.5833V24.4167C65 23.7053 64.8739 23.001 64.6289 22.3438C64.3839 21.6866 64.0248 21.0895 63.5721 20.5865C63.1195 20.0835 62.582 19.6845 61.9906 19.4123C61.3991 19.1401 60.7652 19 60.125 19H39.875ZM37.25 24.4167C37.25 22.8067 38.426 21.5 39.875 21.5H60.125C61.574 21.5 62.75 22.8067 62.75 24.4167V43.5833C62.75 44.3569 62.4734 45.0987 61.9812 45.6457C61.4889 46.1927 60.8212 46.5 60.125 46.5H39.875C39.1788 46.5 38.5111 46.1927 38.0188 45.6457C37.5266 45.0987 37.25 44.3569 37.25 43.5833V24.4167Z" fill="white"/>
<path d="M109.556 28.366V37.62H111.026V28.366H109.556ZM110.592 32.02V33.238H112.832V32.02H110.592ZM101.576 34.246V35.436H102.598C105.356 35.436 106.84 35.366 108.52 35.002L108.366 33.826C106.728 34.176 105.3 34.246 102.598 34.246H101.576ZM101.576 29.43V34.876H103.032V30.62H107.26V29.43H101.576ZM102.934 39.72V40.91H111.544V39.72H102.934ZM102.934 36.668V40.294H104.404V36.668H102.934ZM118.865 31.838V33.014H121.595V31.838H118.865ZM118.781 35.044V36.22H121.553V35.044H118.781ZM123.443 28.366V41.162H124.857V28.366H123.443ZM120.853 28.674V40.546H122.225V28.674H120.853ZM117.983 29.934V30.214C117.983 33.266 116.779 35.632 113.825 37.41L114.665 38.446C118.165 36.374 119.397 33.406 119.397 29.934H117.983ZM114.469 29.934V31.124H118.515V29.934H114.469ZM132.892 30.088V31.208H136.28V30.088H132.892ZM132.892 32.426V33.546H136.28V32.426H132.892ZM135.93 28.366V34.988H137.386V28.366H135.93ZM129.056 35.562V36.71H135.944V37.69H129.084V40.574H130.526V38.768H137.386V35.562H129.056ZM129.084 39.846V41.008H137.82V39.846H129.084ZM127.376 28.926V34.554H133.284V28.926H131.842V30.606H128.832V28.926H127.376ZM128.832 31.726H131.842V33.392H128.832V31.726ZM139.681 38.46V39.664H151.273V38.46H139.681ZM144.721 35.856V38.95H146.177V35.856H144.721ZM141.039 29.262V30.438H148.431V32.146H141.067V35.688H142.523V33.308H149.887V29.262H141.039ZM141.067 35.086V36.276H150.181V35.086H141.067ZM158.715 29.416V31.516C158.715 33.882 157.469 36.332 155.481 37.298L156.377 38.474C158.575 37.354 159.905 34.498 159.905 31.516V29.416H158.715ZM158.995 29.416V31.516C158.995 34.4 160.269 37.13 162.397 38.236L163.293 37.074C161.375 36.122 160.171 33.798 160.171 31.516V29.416H158.995ZM164.147 28.366V41.162H165.617V28.366H164.147ZM165.281 33.434V34.652H167.605V33.434H165.281ZM171.845 29.78V30.984C171.845 32.706 170.711 34.372 168.695 35.058L169.451 36.206C171.733 35.422 173.063 33.364 173.063 30.984V29.78H171.845ZM172.139 29.78V30.984C172.139 33.266 173.469 35.226 175.723 35.968L176.465 34.82C174.491 34.176 173.343 32.622 173.343 30.984V29.78H172.139ZM169.087 29.36V30.536H176.073V29.36H169.087ZM177.655 28.38V37.676H179.125V28.38H177.655ZM170.767 39.72V40.91H179.489V39.72H170.767ZM170.767 36.822V40.28H172.237V36.822H170.767ZM189.633 32.51V34.232H191.089V32.51H189.633ZM190.375 28.506C187.505 28.506 185.825 29.276 185.825 30.704C185.825 32.118 187.505 32.902 190.375 32.902C193.245 32.902 194.939 32.118 194.939 30.704C194.939 29.276 193.245 28.506 190.375 28.506ZM190.375 29.598C192.363 29.598 193.413 29.976 193.413 30.704C193.413 31.432 192.363 31.81 190.375 31.81C188.401 31.81 187.337 31.432 187.337 30.704C187.337 29.976 188.401 29.598 190.375 29.598ZM184.593 33.742V34.918H196.157V33.742H184.593ZM185.965 35.814V36.92H193.273V37.83H185.979V40.252H187.435V38.88H194.715V35.814H185.965ZM185.979 39.916V41.05H195.079V39.916H185.979ZM206.572 28.352V41.176H208.042V28.352H206.572ZM198.2 36.934V38.138H199.292C201.546 38.138 203.45 38.054 205.662 37.676L205.508 36.486C203.352 36.85 201.49 36.934 199.292 36.934H198.2ZM198.172 29.5V30.69H202.652V33.07H198.2V37.382H199.684V34.246H204.136V29.5H198.172ZM219.451 28.366V41.162H220.921V28.366H219.451ZM215.699 29.724V29.976C215.699 33.392 214.145 35.926 210.463 37.704L211.233 38.88C215.629 36.738 217.141 33.518 217.141 29.724H215.699ZM211.093 29.724V30.9H216.357V29.724H211.093Z" fill="white"/>
</svg>
